<?xml version="1.0" encoding="utf-8"?>
<!-- Generator: Adobe Illustrator 21.0.0, SVG Export Plug-In . SVG Version: 6.00 Build 0)  -->
<svg version="1.1" id="Layer_1" xmlns="http://www.w3.org/2000/svg" xmlns:xlink="http://www.w3.org/1999/xlink" x="0px" y="0px"
	 width="722px" height="142px" viewBox="0 0 722 142" style="enable-background:new 0 0 722 142;" xml:space="preserve">
<style type="text/css">
	.st0{fill:#4068B2;}
	.st1{fill:none;stroke:#4068B2;stroke-width:2;stroke-miterlimit:10;}
</style>
<g>
	<g>
		<g>
			<path class="st0" d="M205.2,106.5c-7.4,7.2-17.1,11.2-27.4,11.2h-0.6c-10.5-0.1-20.2-4.4-27.5-11.9s-11.2-17.4-11-27.8
				c0.1-10.3,4.3-20.1,11.6-27.3c7.4-7.3,17.1-11.3,27.4-11.3h0.6c10.5,0.2,20.2,4.4,27.5,11.9c0.9,0.9,1.7,1.8,2.4,2.7h20.7
				c-9-18.8-28.1-31.8-50.3-32.2h-0.9c-31,0-56.2,24.9-56.7,55.9c-0.4,31.3,24.5,57.1,55.9,57.5c0.3,0,0.6,0.1,0.9,0.1
				c22.5,0,42-13.2,51.2-32.2h-20.7C207.3,104.3,206.2,105.3,205.2,106.5z"/>
		</g>
	</g>
	<path class="st0" d="M98.9,132.7V78.9l0,0c0-0.1,0-0.1,0-0.2c0.2-10.5-3.8-20.3-11-27.8S70.8,39.2,60.4,39c-0.2,0-0.4,0-0.6,0
		c-10.3,0-20.1,4-27.4,11.2c-7.4,7.3-11.5,17-11.7,27.3c0,0.5,0,0.9,0,1.4l0,0v53.8H3V78.9l0,0c0-0.5,0-1.1,0-1.7
		c0.5-31,25.8-55.9,56.7-55.9c0.3,0,0.6,0,0.9,0c31.3,0.5,56.3,26.2,55.9,57.5v53.8L98.9,132.7L98.9,132.7z"/>
	<path class="st0" d="M325.7,12.8V37c-9.9-9.5-23.4-15.4-38.3-15.7h-0.9c-31,0-56.2,24.9-56.7,55.9c-0.5,31.3,24.5,57.1,55.9,57.5
		c0.2,0,0.6,0.1,0.9,0.1c30.9,0,56.2-24.9,56.7-55.9c0.1-0.6,0.1-1.1,0-1.7h0.1V12.7L325.7,12.8L325.7,12.8z M314,106.1
		c-7.4,7.2-17.1,11.2-27.4,11.2H286c-10.5-0.1-20.2-4.4-27.5-11.9s-11.2-17.4-11-27.8c0.2-10.3,4.3-20,11.7-27.3S276.3,39,286.6,39
		h0.6c10.5,0.2,20.2,4.4,27.5,11.9c7.3,7.6,11.2,17.4,11,27.9C325.6,89.1,321.4,98.8,314,106.1z"/>
</g>
<g>
	<g>
		<path class="st0" d="M445,32.4v30.7h-3.1l-11.2-20.8v20.8H427V32.3h3.1l11.2,20.8V32.3L445,32.4L445,32.4z"/>
		<path class="st0" d="M463.7,56h-10.2l-2,7.1h-3.9l9.1-30.8h3.7l9.2,30.8h-3.9L463.7,56z M462.4,51.5l-3.9-13.4l-3.8,13.4H462.4z"
			/>
		<path class="st0" d="M475.3,37.2h-6.7v-4.9h17.2v4.9h-6.7v25.9h-3.8V37.2z"/>
		<path class="st0" d="M488.7,32.4h3.8v30.7h-3.8V32.4z"/>
		<path class="st0" d="M496.5,47.7c0-9.1,4.6-15.8,11-15.8s11,6.6,11,15.8s-4.6,15.8-11,15.8S496.5,56.8,496.5,47.7z M514.6,47.7
			c0-6.3-3.1-10.8-7.2-10.8s-7.2,4.6-7.2,10.8s3.1,10.8,7.2,10.8S514.6,54,514.6,47.7z"/>
		<path class="st0" d="M540.4,32.4v30.7h-3.1l-11.2-20.8v20.8h-3.8V32.3h3.1l11.2,20.8V32.3L540.4,32.4L540.4,32.4z"/>
		<path class="st0" d="M559,56h-10.2l-2,7.1H543l9.1-30.8h3.7l9.2,30.8h-3.9L559,56z M557.8,51.5l-3.9-13.4l-3.8,13.4H557.8z"/>
		<path class="st0" d="M567.6,32.4h3.8v25.9H582v4.9h-14.4V32.4z"/>
		<path class="st0" d="M591.6,47.7c0-9.2,4.6-15.8,10.9-15.8c3.3,0,6.2,1.8,8,5.2l-2.4,3.4c-1.5-2.4-3.3-3.6-5.4-3.6
			c-4.2,0-7.3,4.5-7.3,10.8s3.1,10.8,7.3,10.8c2.1,0,3.9-1.2,5.4-3.7l2.4,3.5c-1.9,3.4-4.7,5.2-8,5.2
			C596.2,63.5,591.6,56.9,591.6,47.7z"/>
		<path class="st0" d="M629.3,58.3v4.8H614V32.3h14.8v4.8h-11.1v8.1h9.8v4.7h-9.8v8.4H629.3L629.3,58.3z"/>
		<path class="st0" d="M651.6,32.4v30.7h-3.1l-11.2-20.8v20.8h-3.8V32.3h3.1l11.2,20.8V32.3L651.6,32.4L651.6,32.4z"/>
		<path class="st0" d="M661.2,37.2h-6.7v-4.9h17.2v4.9H665v25.9h-3.8V37.2L661.2,37.2z"/>
		<path class="st0" d="M689.8,58.3v4.8h-15.3V32.3h14.8v4.8h-11.1v8.1h9.8v4.7h-9.8v8.4H689.8L689.8,58.3z"/>
		<path class="st0" d="M707.2,63.1l-4.1-9c-0.2,0.1-0.5,0.1-0.8,0.1h-4.6v9h-3.8V32.4h8.3c5.3,0,8.6,4.1,8.6,10.9
			c0,4.6-1.6,8.1-4.3,9.7l4.7,10.1H707.2L707.2,63.1z M702.1,37.2h-4.4v12.2h4.4c3.3,0,5-2.3,5-6.1
			C707.2,39.4,705.5,37.2,702.1,37.2z"/>
		<path class="st0" d="M422.1,89.8v9.3h9.8v4.9h-9.8v11.8h-3.8V85h14.8v4.8H422.1L422.1,89.8z"/>
		<path class="st0" d="M435.1,100.4c0-9.1,4.6-15.8,11-15.8c6.3,0,11,6.6,11,15.8s-4.6,15.8-11,15.8
			C439.7,116.2,435.1,109.4,435.1,100.4z M453.2,100.4c0-6.3-3.1-10.8-7.2-10.8s-7.2,4.6-7.2,10.8c0,6.3,3.1,10.8,7.2,10.8
			S453.2,106.7,453.2,100.4z"/>
		<path class="st0" d="M474.3,115.8l-4.1-9c-0.2,0.1-0.5,0.1-0.8,0.1h-4.6v9H461V85h8.3c5.3,0,8.6,4.1,8.6,10.9
			c0,4.6-1.6,8.1-4.3,9.7l4.7,10.1L474.3,115.8L474.3,115.8z M469.2,89.9h-4.4v12.2h4.4c3.3,0,5-2.3,5-6.1
			C474.2,92.1,472.5,89.9,469.2,89.9z"/>
		<path class="st0" d="M490.2,85h8.9c6.6,0,11.1,6.1,11.1,15.4s-4.5,15.4-11.1,15.4h-8.9V85L490.2,85z M498.9,110.9
			c4.5,0,7.5-4.2,7.5-10.5s-2.9-10.5-7.5-10.5H494v21H498.9z"/>
		<path class="st0" d="M529.4,110.9v4.8h-15.3V85H529v4.8h-11.1v8h9.8v4.7h-9.8v8.4H529.4L529.4,110.9z"/>
		<path class="st0" d="M551.9,85l-8.8,30.8h-3.7L530.5,85h4.1l6.8,23.7l6.8-23.7H551.9z"/>
		<path class="st0" d="M569.3,110.9v4.8H554V85h14.8v4.8h-11.1v8h9.8v4.7h-9.8v8.4H569.3L569.3,110.9z"/>
		<path class="st0" d="M573.5,85h3.8v25.9h10.6v4.9h-14.4L573.5,85L573.5,85z"/>
		<path class="st0" d="M589.1,100.4c0-9.1,4.6-15.8,11-15.8c6.3,0,11,6.6,11,15.8s-4.6,15.8-11,15.8
			C593.7,116.2,589.1,109.4,589.1,100.4z M607.1,100.4c0-6.3-3.1-10.8-7.2-10.8s-7.2,4.6-7.2,10.8c0,6.3,3.1,10.8,7.2,10.8
			C604.1,111.2,607.1,106.7,607.1,100.4z"/>
		<path class="st0" d="M632,95.9c0,6.8-3.3,10.9-8.6,10.9h-4.6v8.9H615V85h8.3C628.6,85,632,89.1,632,95.9z M628.2,95.9
			c0-3.9-1.7-6.1-5-6.1h-4.4V102h4.4C626.4,102.1,628.2,99.8,628.2,95.9z"/>
		<path class="st0" d="M654.4,115.8V95.4l-6.7,16.9H646l-6.7-16.6v20.1h-3.6V85h3.1l8,20.4l7.9-20.4h3.1v30.8H654.4z"/>
		<path class="st0" d="M678.6,110.9v4.8h-15.3V85h14.8v4.8H667v8h9.8v4.7H667v8.4H678.6L678.6,110.9z"/>
		<path class="st0" d="M700.9,85v30.8h-3.1L686.6,95v20.8h-3.8V85h3.1l11.2,20.8V85H700.9z"/>
		<path class="st0" d="M710.5,89.9h-6.7V85H721v4.9h-6.7v25.9h-3.8V89.9L710.5,89.9z"/>
	</g>
</g>
<line class="st1" x1="383.4" y1="1.6" x2="383.4" y2="141.4"/>
<g>
</g>
<g>
</g>
<g>
</g>
<g>
</g>
<g>
</g>
<g>
</g>
<g>
</g>
<g>
</g>
<g>
</g>
<g>
</g>
<g>
</g>
<g>
</g>
<g>
</g>
<g>
</g>
<g>
</g>
</svg>
