<?xml version="1.0" encoding="utf-8"?>
<!-- Generator: Adobe Illustrator 21.0.0, SVG Export Plug-In . SVG Version: 6.00 Build 0)  -->
<svg version="1.1" id="Слой_1" xmlns="http://www.w3.org/2000/svg" xmlns:xlink="http://www.w3.org/1999/xlink" x="0px" y="0px"
	 width="493.3px" height="489.7px" viewBox="0 0 493.3 489.7" style="enable-background:new 0 0 493.3 489.7;" xml:space="preserve"
	>
<style type="text/css">
	.st0{fill:none;stroke:#3368c6;stroke-width:18;stroke-miterlimit:10;}
	.st1{fill:none;stroke:#3368C6;stroke-width:15;stroke-linecap:round;stroke-miterlimit:10;}
	.st2{fill:none;stroke:#3368C6;stroke-width:18;stroke-linecap:round;stroke-miterlimit:10;}
	.st3{fill:none;stroke:#3368C6;stroke-width:15;stroke-linecap:round;stroke-linejoin:round;}
</style>
<title>Перелет</title>
<path class="st0" d="M170.1,358.8c0,0,51.5,86.8,33,102.4l-18.6,15.6l-62.6-79.2"/>
<path class="st1" d="M380,62.4c0,0,46.9,6.8,45,46.9"/>
<g>
	<path class="st2" d="M163.9,261.9c0,0-104.1,127.8-77.7,144.4s353.3-270.5,353.3-270.5"/>
	<path class="st2" d="M441.5,132.8c0,0,49.9-97.8,18.6-110.4S351.6,42.9,325.2,74.1S165.9,258.9,165.9,258.9"/>
	<path class="st0" d="M125.2,312.9c0,0-77.6-38.1-89.3-31.9s-23.5,21.8-23.5,21.8L91.6,366"/>
	<path class="st2" d="M224.6,191.1c0,0-173-118.9-171.1-133.5s22.5-55.5,67.4-40s179.9,74.1,179.9,74.1"/>
	<path class="st2" d="M393.6,180.8c0,0,81.2,178.7,81.2,197.3s-32.3,69.4-48.9,55.7S295.4,261.9,295.4,261.9"/>
	<path class="st3" d="M153.9,30l19.5-19.5c4-4,10.4-4,14.4,0l0,0l8.8,8.8c5.3,5.3,5.3,9.1,0,14.4l-8.6,8.6"/>
	<path class="st3" d="M224.1,54.6L239,40.2c4-4,10.4-4,14.4,0l0,0l8.8,8.8c5.3,5.3,5.3,9.1,0,14.4l-8.6,8.6"/>
	<path class="st3" d="M417.6,235l9.4-9c2.5-2.5,7.8-1.3,11.7,2.7l8.8,8.8c5.3,5.3,6,8.4,2.7,11.7l-18.7,18.7"/>
	<path class="st3" d="M451.1,299.9l9.4-9c2.5-2.5,7.8-1.3,11.7,2.7l8.8,8.8c5.3,5.3,6,8.4,2.7,11.7L465,332.8"/>
</g>
</svg>
