<?xml version="1.0" encoding="utf-8"?>
<!-- Generator: Adobe Illustrator 21.0.0, SVG Export Plug-In . SVG Version: 6.00 Build 0)  -->
<svg version="1.1" id="Слой_1" xmlns="http://www.w3.org/2000/svg" xmlns:xlink="http://www.w3.org/1999/xlink" x="0px" y="0px"
	 width="480px" height="480px" viewBox="0 0 480 480" style="enable-background:new 0 0 480 480;" xml:space="preserve">
<style type="text/css">
	.st0{fill:#3368C6;stroke:#3368C6;stroke-miterlimit:10;}
</style>
<path class="st0" d="M479.1,113.8c-1.7-6.1-5.7-11.4-11.2-14.6s-12.1-4.1-18.2-2.4s-11.4,5.7-14.6,11.2l-4,7
	c-3.8-2.2-8.7-0.9-10.9,2.9l-20.3,34.6l-7-4c-1.8-1.1-4-1.4-6.1-0.8c-2.1,0.6-3.8,1.9-4.9,3.8c-2.2,3.8-0.8,8.7,3,10.9l7,4
	l-68,117.8l-16.8,44.9l-8,15c-4.7,8.1-4.2,18.3,1.3,25.9l-18,22.1l-5-12.6c-2.3-5.6-7.5-9.5-13.6-10s-11.9,2.5-15,7.7L246,382
	l-2.7-32c-0.6-7.6-6.5-13.7-14-14.6s-14.7,3.6-17.1,10.8l-19.7,59c-1.4,4.2,0.9,8.7,5,10.1c0.8,0.4,1.6,0.6,2.5,0.6
	c3.4,0,6.5-2.2,7.6-5.4l19.6-59L230,384c0.6,6.9,5.6,12.7,12.3,14.3c6.8,1.6,13.8-1.4,17.3-7.4l3-4.9l5,12.6
	c2.1,5.3,6.9,9.1,12.5,9.9s11.3-1.4,14.9-5.8l18.6-23.6c2.1,0.5,4.2,0.8,6.3,0.8c8.6,0.1,16.5-4.4,20.9-11.8l8-13.4l30.5-37
	L448,198.4l7,4c1.9,1.1,3.2,2.8,3.8,4.9c0.6,2.1,0.3,4.2-0.8,6.1l-32,55.4c-1.2,1.8-1.6,4.1-1.1,6.2s1.8,4,3.7,5.1
	c1.8,1.1,4,1.4,6.1,0.8s3.8-1.9,4.9-3.8l32-55.4c3.2-5.5,4.1-12.1,2.4-18.2c-1.7-6.1-5.7-11.4-11.2-14.6l-7-4l20-34.6
	c2.2-3.8,0.9-8.7-2.9-10.9l4-7C480,126.8,480.9,120.1,479.1,113.8z M449,116.1c1.1-1.9,2.8-3.2,4.9-3.8c2.1-0.5,4.2-0.2,6.1,0.8
	c1.9,1.1,3.2,2.8,3.8,4.9c0.5,2.1,0.2,4.2-0.8,6.1l-4,7l-13.9-8L449,116.1z M339.9,339.4l-4-2.3l-11.8-6.9l11.4-30.4l25.2,14.6
	L339.9,339.4z M315.9,362.5c-3.4-2.4-4.4-6.9-2.4-10.5l4-7l13.9,8l-4,6.9c-1.1,1.9-3,3.3-5.2,3.8
	C320.1,364.2,317.8,363.8,315.9,362.5z M369.8,301.2l-27.7-16l64-110.9l27.7,16L369.8,301.2z M441.8,176.5l-27.7-16l16-27.7l27.7,16
	L441.8,176.5z"/>
<path class="st0" d="M126.2,358.5l-28.3,28.2l-17-17c-3.1-3.1-8.2-3.1-11.3,0c-1.5,1.5-2.4,3.5-2.4,5.7s0.9,4.2,2.4,5.7l17,17
	c3,3,7.1,4.6,11.3,4.6c4.2,0,8.3-1.6,11.4-4.6l28.2-28.3c2.7-3.2,2.5-7.9-0.4-10.9C134.1,356,129.4,355.8,126.2,358.5z"/>
<path class="st0" d="M32,380c0,37.6,30.4,68,68,68s68-30.4,68-68c0-4.4-3.6-8-8-8s-8,3.6-8,8c0,28.7-23.3,52-52,52s-52-23.3-52-52
	s23.3-52,52-52c11.3,0,22.2,3.6,31.2,10.4c3.5,2.7,8.5,1.9,11.2-1.6s1.9-8.5-1.6-11.2c-20.6-15.5-48.2-17.9-71.2-6.4
	C46.5,330.7,32,354.3,32,380z"/>
<path class="st0" d="M90.1,84.1c-4.6,0-8.3,3.6-8.3,8s3.7,8,8.3,8h167c4.6,0,8.3-3.6,8.3-8s-3.7-8-8.3-8H90.1z"/>
<path class="st0" d="M294.8,158.1H91c-5.1,0-9.3,3.6-9.3,8s4.1,8,9.3,8h203.8c5.1,0,9.3-3.6,9.3-8
	C304.1,161.6,300,158.1,294.8,158.1z"/>
<path class="st0" d="M253.4,232c0-4.4-3.5-8-7.8-8h-156c-4.3,0-7.8,3.6-7.8,8s3.5,8,7.8,8h156.1C250,240,253.4,236.5,253.4,232z"/>
<path class="st0" d="M359.9,325.7c-4.4,0-8,3.6-8,8V456c0,4.4-3.6,8-8,8H24c-4.4,0-8-3.6-8-8V24.1c0-4.4,3.6-8,8-8h319.9
	c4.4,0,8,3.6,8,8V236c0,4.4,3.6,8,8,8s8-3.6,8-8V24.1c0-13.3-10.7-24-24-24H24c-13.3,0-24,10.7-24,24V456c0,13.3,10.7,24,24,24
	h319.9c13.3,0,24-10.7,24-24V333.7C367.9,329.2,364.4,325.7,359.9,325.7z"/>
</svg>
