<?xml version="1.0" encoding="utf-8"?>
<!-- Generator: Adobe Illustrator 23.0.2, SVG Export Plug-In . SVG Version: 6.00 Build 0)  -->
<svg version="1.1" id="Layer_1" xmlns="http://www.w3.org/2000/svg" xmlns:xlink="http://www.w3.org/1999/xlink" x="0px" y="0px"
	 viewBox="0 0 691 269" style="enable-background:new 0 0 691 269;" xml:space="preserve">
<style type="text/css">
	.st0{fill:#3368c6;}
	.st1{fill:#3368c6;}
</style>
<g>
	<g>
		<path class="st0" d="M398.7,189.8c-12.5,12.2-29,19-46.4,19h-1c-17.7-0.2-34.2-7.4-46.5-20.1c-12.3-12.7-19-29.5-18.7-47.1
			c0.2-17.5,7.3-34,19.7-46.2c12.5-12.3,28.9-19.1,46.4-19.1h1c17.7,0.3,34.2,7.4,46.5,20.1c1.5,1.5,2.8,3,4.1,4.6h35
			c-15.3-31.8-47.6-53.9-85.2-54.5h-1.5c-52.4,0-95.2,42.1-96,94.6c-0.7,53,41.5,96.7,94.6,97.4c0.5,0,1,0.1,1.5,0.1
			c38.1,0,71.1-22.3,86.6-54.5h-35C402.3,186.1,400.6,187.9,398.7,189.8z"/>
		<path class="st0" d="M352.3,246.6c-0.5,0-0.9,0-1.4-0.1l-0.2,0c-27.8-0.4-53.8-11.6-73.1-31.5c-19.3-19.9-29.8-46.2-29.4-74
			c0.4-27.5,11.5-53.3,31.1-72.6c19.6-19.3,45.5-29.9,72.9-29.9l1.6,0c39.7,0.6,75,23.2,92.3,59l5.5,11.5H400l-2.4-3
			c-1.3-1.7-2.4-2.9-3.5-4L394,102c-10.8-11.1-25.3-17.4-40.8-17.7h-1c-15.4,0-29.9,6-40.8,16.8c-11,10.8-17.2,25.2-17.4,40.6
			c-0.3,15.5,5.6,30.2,16.4,41.4c10.9,11.2,25.4,17.5,40.8,17.7h1c15.4,0,29.8-5.9,40.8-16.7c1.8-1.8,3.2-3.4,4.4-4.9l2.4-3.1h51.6
			l-5.5,11.5C428.8,223.4,392,246.6,352.3,246.6z M350.8,230.5c0.4,0,0.9,0,1.3,0.1l0.2,0c29.1,0,56.4-14.8,72.7-38.5h-17.4
			c-1,1.1-2,2.2-3.2,3.4l-0.1,0.1c-14,13.7-32.5,21.3-52,21.3l-1.1,0c-19.8-0.2-38.3-8.3-52.2-22.5c-13.8-14.3-21.3-33-21-52.8
			c0.2-19.6,8.1-38,22.1-51.8c13.9-13.8,32.4-21.4,52-21.4l1.2,0c19.8,0.3,38.3,8.3,52.1,22.5c0.7,0.7,1.4,1.4,2.1,2.2H425
			c-16-23.5-42.3-38-71.4-38.5h-1.4c-47.8,0-87.3,38.9-88,86.7c-0.3,23.5,8.5,45.7,24.9,62.6C305.4,220.7,327.4,230.2,350.8,230.5z"
			/>
	</g>
</g>
<g>
	<g>
		<path class="st0" d="M195.3,234.2l0-91h0c0-0.1,0-0.2,0-0.3c0.3-17.7-6.4-34.4-18.7-47.1c-12.3-12.7-28.9-19.8-46.6-20.1
			c-0.3,0-0.7,0-1,0c-17.5,0-34,6.8-46.4,19c-12.5,12.3-19.5,28.7-19.8,46.2c0,0.8,0,1.6,0,2.3h0l0,91H33v-91h0c0-0.9,0-1.8,0-2.8
			c0.8-52.5,43.6-94.6,96-94.6c0.5,0,1,0,1.5,0c53,0.8,95.3,44.4,94.6,97.3l0,91H195.3z"/>
	</g>
	<g>
		<path class="st0" d="M187.3,242.2h45.8l0-98.9C233.8,86,187.9,38.7,130.6,37.9l-1.6,0c-27.4,0-53.4,10.6-72.9,29.9
			c-18.4,18.1-29.2,41.9-30.8,67.5H25v107h45.8l0-91H71l-0.2-8.2c0-0.7,0-1.3,0-2c0.2-15.4,6.4-29.8,17.4-40.6
			c11-10.8,25.5-16.7,40.8-16.7c0.3,0,0.5,0,0.8,0h0.1c15.6,0.2,30.1,6.5,40.9,17.7c10.3,10.6,16.1,24.4,16.4,39.1
			c0,0.2,0,0.5,0,0.7c0,0.5,0,1,0,1.6V242.2z M55.1,135.2h-0.3l0,91H41v-75h0.2l-0.2-8.2c0-0.8,0-1.7,0-2.5
			c0.7-47.8,40.2-86.7,88-86.7l1.4,0c48.5,0.7,87.3,40.8,86.7,89.2v0.1l0,83.1h-13.8V143c0-0.8,0-1.6,0-2.4v-5.3H203
			c-1.5-16.9-8.7-32.7-20.7-45C168.5,76,150,68,130.2,67.6c-0.4,0-0.8,0-1.2,0c-19.6,0-38.1,7.6-52.1,21.3
			C64.3,101.4,56.7,117.7,55.1,135.2z"/>
	</g>
</g>
<g>
	<g>
		<g>
			<path class="st0" d="M634.2,31.3v41c-16.8-16.1-39.6-26.1-64.8-26.5h-1.5c-52.4,0-95.2,42.1-96,94.6c-0.8,53,41.5,96.7,94.6,97.4
				c0.4,0,1,0.1,1.5,0.1c52.3,0,95.2-42.1,95.9-94.6c0.1-1,0.1-1.9,0-2.8h0.1V31.3H634.2z M614.4,189.1c-12.5,12.2-29,19-46.4,19h-1
				c-17.7-0.2-34.2-7.4-46.6-20.1c-12.3-12.7-18.9-29.5-18.7-47.1c0.3-17.5,7.3-33.9,19.8-46.2c12.5-12.3,28.9-19.1,46.4-19.1h1
				c17.7,0.3,34.2,7.4,46.5,20.1c12.3,12.8,19,29.5,18.7,47.2C634,160.4,626.9,176.8,614.4,189.1z"/>
		</g>
	</g>
	<g>
		<g>
			<path class="st0" d="M568,245.9c-0.5,0-0.9,0-1.4-0.1l-0.2,0c-27.8-0.4-53.8-11.6-73.1-31.5c-19.4-19.9-29.8-46.2-29.4-74
				c0.4-27.5,11.5-53.3,31.1-72.6c19.6-19.3,45.5-29.9,72.9-29.9l1.6,0c20.4,0.3,40,6.5,56.6,17.8V23.3H672v125.2h-0.3
				c-1.6,25.6-12.4,49.4-30.8,67.5C621.3,235.3,595.4,245.9,568,245.9z M566.6,229.9c0.4,0,0.8,0,1.2,0.1l0.3,0
				c47.7,0,87.2-38.9,87.9-86.7l0-0.5c0-0.6,0-1,0-1.6l-0.7-8.6h0.7V39.3h-13.8v51.7l-13.5-12.9c-16-15.3-37.1-23.9-59.3-24.3h-1.4
				c-47.8,0-87.3,38.9-88,86.7c-0.4,23.5,8.5,45.8,24.8,62.6C521.1,220.1,543.1,229.5,566.6,229.9z M568,216.1l-1.1,0
				c-19.7-0.2-38.3-8.2-52.2-22.5c-13.8-14.2-21.2-32.9-21-52.8c0.3-19.6,8.2-38,22.2-51.8c14-13.8,32.4-21.4,52.1-21.4l1.2,0
				c19.8,0.3,38.3,8.3,52.1,22.5c13.8,14.4,21.3,33.1,21,52.9c-0.2,19.5-8.1,37.9-22.1,51.8l0,0C606.1,208.6,587.6,216.1,568,216.1z
				 M567,200.1h1c15.4,0,29.9-5.9,40.8-16.7c11-10.9,17.2-25.3,17.4-40.6c0.3-15.5-5.6-30.3-16.5-41.5
				c-10.8-11.1-25.3-17.4-40.8-17.7h-1c-15.4,0-29.9,6-40.8,16.8c-11,10.9-17.2,25.3-17.4,40.7c-0.2,15.6,5.6,30.3,16.4,41.4
				C537,193.6,551.6,199.9,567,200.1z"/>
		</g>
	</g>
</g>
<path class="st1" d="M187.3,140.4v0.7C187.3,140.9,187.3,140.6,187.3,140.4L187.3,140.4z"/>
<g>
</g>
<g>
</g>
<g>
</g>
<g>
</g>
<g>
</g>
<g>
</g>
<g>
</g>
<g>
</g>
<g>
</g>
<g>
</g>
<g>
</g>
<g>
</g>
<g>
</g>
<g>
</g>
<g>
</g>
</svg>
