<?xml version="1.0" encoding="utf-8"?>
<!-- Generator: Adobe Illustrator 21.0.0, SVG Export Plug-In . SVG Version: 6.00 Build 0)  -->
<svg version="1.1" id="Capa_1" xmlns="http://www.w3.org/2000/svg" xmlns:xlink="http://www.w3.org/1999/xlink" x="0px" y="0px"
	 width="512px" height="315.9px" viewBox="0 0 512 315.9" style="enable-background:new 0 0 512 315.9;" xml:space="preserve">
<style type="text/css">
	.st0{fill:#3368c6;stroke:#3368c6;stroke-miterlimit:10;}
</style>
<title>handshake</title>
<path class="st0" d="M256.1,248.4c-5.9-4.5-13.4-6.2-20.6-4.9c-2.3-14-15.3-23.6-29.4-21.6c-1.7,0.2-3.4,0.6-5,1.2
	c-4-13.8-18.5-21.8-32.4-17.8c-0.9,0.3-1.8,0.6-2.7,0.9c-4.6-13.7-19.4-21.1-33.1-16.5c-3.7,1.2-7.1,3.3-9.9,6.1L95.5,194
	l16.8-136.7l30.1,2h0.5c2.8,0,5.4-1.6,6.7-4.1l11.3-22c2.9-5.6,9.3-8.4,15.4-6.8l41.4,12c4,1.1,8.1-1.2,9.2-5.2
	c1.1-4-1.2-8.1-5.2-9.2l-41.4-12c-12.9-3.5-26.6,2.5-32.7,14.4l-9,17.7l-24.4-1.7l0.6-4.7c1.8-15-8.9-28.7-23.9-30.5L33.1,0.1
	c-4.1-0.5-7.9,2.4-8.4,6.5s2.4,7.9,6.5,8.4l57.8,7.1c6.8,0.8,11.6,7,10.8,13.8c0,0,0,0,0,0L80.1,197.1c-0.8,6.8-7,11.6-13.8,10.8
	l-57.8-7.1c-4.1-0.8-8,1.8-8.8,5.9s1.8,8,5.9,8.8c0.4,0.1,0.7,0.1,1.1,0.1l57.8,7.2c11.1,1.4,22-4.2,27.4-14l20.5,1.4
	c-6.6,12.8-1.5,28.6,11.3,35.2c3.7,1.9,7.8,2.9,11.9,2.9c1.2,0,2.4-0.1,3.6-0.3h0.2c0,0.1,0,0.1,0,0.2c1.8,12.9,12.9,22.5,25.9,22.5
	c1.3,0,2.6-0.1,3.9-0.3c1.7,13,12.8,22.8,25.9,22.8c1.3,0,2.6-0.1,3.8-0.3c0,0.1,0,0.2,0,0.3c1.8,12.9,12.9,22.5,25.9,22.5
	c1.2,0,2.4-0.1,3.6-0.3c6.9-0.9,13.1-4.6,17.3-10.1l15.5-20.5C269.8,273.5,267.6,257.1,256.1,248.4z M137.1,233.2
	c-6.1,0.8-11.7-3.4-12.6-9.5c-0.4-2.9,0.4-5.9,2.2-8.3l5.7-7.5c3.8-4.8,10.9-5.6,15.7-1.8c4.7,3.7,5.6,10.4,2.1,15.3l-5.7,7.5
	C142.7,231.2,140,232.8,137.1,233.2L137.1,233.2z M158.5,253.6c-4.9-3.7-5.9-10.7-2.2-15.6l5.7-7.5l0,0l5-6.7
	c3.7-4.9,10.7-5.9,15.6-2.2c4.9,3.7,5.9,10.7,2.2,15.6l0,0l-10.8,14.2C170.4,256.3,163.4,257.2,158.5,253.6z M188.3,276.1
	c-4.9-3.7-5.9-10.7-2.2-15.6l0,0l10.8-14.2l0,0l3.9-5.1c3.7-4.9,10.7-5.9,15.6-2.2c4.9,3.7,5.9,10.7,2.2,15.6l-14.6,19.4l0,0
	C200.2,278.8,193.2,279.8,188.3,276.1L188.3,276.1z M249.2,276l-15.5,20.5c-3.6,5-10.6,6.1-15.6,2.5c-5-3.6-6.1-10.6-2.5-15.6
	c0.1-0.1,0.2-0.3,0.3-0.4l14.6-19.4l0,0l0.8-1.1c3.6-5,10.6-6.1,15.6-2.5c5,3.6,6.1,10.6,2.5,15.6
	C249.4,275.7,249.3,275.9,249.2,276L249.2,276z"/>
<path class="st0" d="M511.9,207.3c-0.5-4.1-4.3-7-8.4-6.5c0,0,0,0,0,0l-57.8,7.1c-6.8,0.8-13-4-13.9-10.8l-0.6-4.8l0,0l-0.1-1.1
	L412.1,35.9c-0.8-6.8,4-13,10.8-13.8c0,0,0,0,0,0l57.8-7.1c4.1-0.5,7-4.2,6.5-8.4s-4.2-7-8.4-6.5l-57.8,7.1
	c-14,1.7-24.4,13.8-24.1,27.9l-14.6,1.8l-45.1-25.4c-6.4-3.6-13.7-5.2-21-4.5l0,0l-17.6,1.3c-4.1,0.4-3.2,4-2.8,8.2s-1,8.2,3.2,7.8
	l18.6-2.3c4.2-0.4,8.5,0.5,12.2,2.6l46.8,26.3c1.5,1,3.2,1.4,5,1.2l16.9-2.1l12.5,100.9l4.3,34.9h-27c-1.8,0-3.5,0.7-4.9,1.8
	l-2.1,1.6l-67.8-58.4c15.5-4.4,30.3-15.2,44.1-32.2c2.7-3.2,2.3-7.9-0.9-10.6c-3.2-2.7-7.9-2.3-10.6,0.9c-0.1,0.1-0.1,0.1-0.2,0.2
	c-15.4,18.9-31.6,28.7-48.2,29c-24.1,0.4-41.9-19.6-42-19.8c-2.7-3.1-7.4-3.5-10.6-0.8c-0.4,0.3-0.7,0.7-1,1.1l-20.1,26.2
	c-10.5,13.8-28.8,19-45,12.8l-2.1-0.8c-2.6-1-3.9-3.9-2.9-6.4c0.1-0.3,0.2-0.5,0.4-0.8L227,39.2c3.4-5.9,9.4-9.7,16.2-10.3l59.1-4.8
	c4.1-0.4,7.2-4,6.8-8.2c0,0,0,0,0,0c-0.4-4.1-4-8.2-8.2-7.8l-59.1,5.8c-11.6,1.1-21.9,7.7-27.8,17.8l-52.6,90.5
	c-5.6,9.5-2.3,21.8,7.2,27.3c1,0.6,2,1,3,1.4l2.1,0.8c6.2,2.3,12.7,3.5,19.3,3.6c16.8,0,32.7-7.9,42.9-21.3l15-19.6
	c8.1,6.9,23.1,17.2,42.3,18.5l98,84.4c3.6,3.1,4,8.6,0.9,12.3l0,0l-3.8,4.4c-4.8,5.5-13.2,6.1-18.7,1.4c-0.3-0.3-0.6-0.5-1-0.7
	l-25.4-21.9c-3.1-2.7-7.9-2.4-10.6,0.8s-2.4,7.9,0.8,10.6l0,0L354,242l-9.4,10.9c-4.8,5.6-13.2,6.2-18.7,1.4c0,0,0,0,0,0l-0.1-0.1
	L302,233.9c-3.1-2.7-7.9-2.4-10.6,0.8s-2.4,7.9,0.8,10.6l0,0l18.1,15.6l-9.5,11c-2.9,3.4-7.3,5.1-11.7,4.5c-4.1-0.5-7.8,2.5-8.3,6.6
	c-0.5,4.1,2.5,7.8,6.6,8.3c9.3,1.1,18.6-2.5,24.8-9.6l10.1-11.8c11.5,5.5,25.3,2.6,33.6-7.1l10.1-11.8c11.5,5.4,25.3,2.6,33.6-7.1
	l3.8-4.4c8.5-9.9,7.4-24.9-2.5-33.4l-6.2-5.3h22.5c2.7,14.2,15.9,23.9,30.3,22.1l57.8-7.1C509.5,215.2,512.5,211.5,511.9,207.3
	C511.9,207.4,511.9,207.4,511.9,207.3z"/>
<path class="st0" d="M464,153.2c-12.2,0-22,9.8-22,22s9.8,22,22,22s22-9.8,22-22l0,0C486,163,476.2,153.2,464,153.2z M464,182.2
	c-3.9,0-7-3.1-7-7s3.1-7,7-7s7,3.1,7,7C471,179.1,467.9,182.2,464,182.2L464,182.2z"/>
<path class="st0" d="M69.2,175.2c0-12.2-9.8-22-22-22s-22,9.8-22,22s9.8,22,22,22l0,0C59.3,197.2,69.2,187.3,69.2,175.2z
	 M40.2,175.2c0-3.9,3.1-7,7-7s7,3.1,7,7s-3.1,7-7,7S40.2,179.1,40.2,175.2z"/>
</svg>
