<?xml version="1.0" encoding="utf-8"?>
<!-- Generator: Adobe Illustrator 21.0.0, SVG Export Plug-In . SVG Version: 6.00 Build 0)  -->
<svg version="1.1" id="Слой_1" xmlns="http://www.w3.org/2000/svg" xmlns:xlink="http://www.w3.org/1999/xlink" x="0px" y="0px"
	 width="405.3px" height="409.5px" viewBox="0 0 405.3 409.5" style="enable-background:new 0 0 405.3 409.5;" xml:space="preserve"
	>
<style type="text/css">
	.st0{fill:none;stroke:#3368c6;stroke-width:16;stroke-miterlimit:10;}
	.st1{fill:none;stroke:#3368c6;stroke-width:14;stroke-linecap:round;stroke-miterlimit:10;}
	.st2{fill:none;stroke:#3368c6;stroke-width:15;stroke-linecap:round;stroke-miterlimit:10;}
</style>
<title>1054019</title>
<g>
	<path class="st0" d="M32.8,7.5h339.7c14,0,25.3,11.3,25.3,25.3v277.7c0,14-11.3,25.3-25.3,25.3H32.8c-14,0-25.3-11.3-25.3-25.3
		V32.8C7.5,18.8,18.8,7.5,32.8,7.5z"/>
	<line class="st1" x1="278.2" y1="53.8" x2="324.2" y2="53.8"/>
	<line class="st1" x1="268.2" y1="85.8" x2="349.8" y2="85.8"/>
	<line class="st1" x1="267.2" y1="117.8" x2="353.8" y2="117.8"/>
	<line class="st1" x1="275.5" y1="149.8" x2="321.5" y2="149.8"/>
	<line class="st1" x1="267.5" y1="181.8" x2="354.8" y2="181.8"/>
	<line class="st1" x1="267.5" y1="213.8" x2="354.3" y2="213.8"/>
	<line class="st1" x1="283.8" y1="245.8" x2="323.5" y2="245.8"/>
	<ellipse class="st2" cx="112.1" cy="120.8" rx="38.2" ry="43.9"/>
	<path class="st2" d="M89.5,156.2c-24.2,9.6-41.3,13.6-41.3,61.6h129.3c0-47.6-16.5-51.2-40-61.1"/>
	<line class="st1" x1="7.5" y1="290.3" x2="397.8" y2="290.3"/>
	<path class="st2" d="M184.9,370.8h-62.7c-20.7,0-32.1,12.5-32.1,31.7h225.3c0-19.1-10.3-32.7-31-32.7h-0.7c0,0-31.5-6.8-30-28.3"/>
	<path class="st2" d="M130,370.8c0,0,14.2-4.8,18.8-30.3"/>
</g>
</svg>
